<svg xmlns="http://www.w3.org/2000/svg" width="128" height="128" viewBox="0 0 128 128" fill="none" >
<defs><filter id="glow"><feGaussianBlur stdDeviation="2.5" result="b"/><feMerge><feMergeNode in="b"/><feMergeNode in="SourceGraphic"/></feMerge></filter></defs>
<g filter="url(#glow)"><rect width="128" height="128" fill="none"/><ellipse cx="64" cy="64" rx="52" ry="31" fill="#ff8f2e" opacity=".08"/><polygon points="8,64 32,26 102,30 124,64 102,98 32,102" fill="#5b6670" stroke="#ff8f2e" stroke-width="3" stroke-linejoin="round"/><polygon points="32,64 61,51 96,64 61,77" fill="#ff8f2e" opacity=".84"/><path d="M30 64 H111" stroke="#c2c8cc" stroke-opacity=".7" stroke-width="2"/><circle cx="64" cy="64" r="5" fill="#c2c8cc"/><path d="M47 43 L32 26 M47 85 L32 102 M84 43 L100 27 M84 85 L100 101" stroke="#ff8f2e" stroke-width="4"/><path d="M18 60 L2 54 M18 68 L2 74" stroke="#c2c8cc" stroke-width="3" stroke-linecap="round" opacity=".8"/><text x="64" y="118" fill="#c2c8cc" font-family="Arial" font-size="10" font-weight="800" text-anchor="middle">VARN BATTLESHIP</text></g>
</svg>