<svg xmlns="http://www.w3.org/2000/svg" width="128" height="128" viewBox="0 0 128 128" fill="none">
  <title>Umbral Veil Eclipse Bloom</title>
  <defs>
    <radialGradient id="bg-umbral-female-6" cx="48%" cy="30%" r="70%">
      <stop offset="0%" stop-color="#b174ff" stop-opacity=".30"/>
      <stop offset="55%" stop-color="#070719" stop-opacity=".98"/>
      <stop offset="100%" stop-color="#01040a"/>
    </radialGradient>
    <linearGradient id="suit-umbral-female-6" x1="28" y1="90" x2="101" y2="127">
      <stop offset="0%" stop-color="#b174ff"/>
      <stop offset="48%" stop-color="#42f0ff"/>
      <stop offset="100%" stop-color="#070719"/>
    </linearGradient>
    <linearGradient id="shade-umbral-female-6" x1="38" y1="31" x2="86" y2="94">
      <stop offset="0%" stop-color="#ffffff" stop-opacity=".28"/>
      <stop offset="100%" stop-color="#000000" stop-opacity=".28"/>
    </linearGradient>
    <filter id="shadow-umbral-female-6" x="-30%" y="-30%" width="160%" height="160%">
      <feDropShadow dx="0" dy="3" stdDeviation="2" flood-color="#000000" flood-opacity=".55"/>
    </filter>
    <filter id="glow-umbral-female-6" x="-60%" y="-60%" width="220%" height="220%">
      <feGaussianBlur stdDeviation="2.2" result="blur"/>
      <feMerge><feMergeNode in="blur"/><feMergeNode in="SourceGraphic"/></feMerge>
    </filter>
  </defs>
  <rect width="128" height="128" rx="10" fill="url(#bg-umbral-female-6)"/>
  <path d="M7 24 C25 15 46 11 64 13 C92 15 111 27 122 43" stroke="#b174ff" stroke-opacity=".24" stroke-width="2"/>
  <path d="M8 98 C33 110 73 114 121 92" stroke="#42f0ff" stroke-opacity=".22" stroke-width="3"/>
  <path d="M101 10 L118 22 M110 12 L121 20 M10 109 L24 119 M16 106 L31 117" stroke="#ffffff" stroke-opacity=".11" stroke-width="2" stroke-linecap="round"/>
  <g opacity=".34">
    <path d="M16 30 L30 24 M102 25 L117 34 M14 109 L29 113 M100 113 L117 104" stroke="#f472b6" stroke-width="2"/>
    <circle cx="24" cy="67" r="2" fill="#42f0ff"/>
    <circle cx="105" cy="69" r="2.5" fill="#b174ff"/>
    <circle cx="99" cy="18" r="1.6" fill="#f472b6"/>
  </g>
  <rect x="5" y="5" width="118" height="118" rx="8" stroke="#b174ff" stroke-opacity=".36" stroke-width="2"/>
  <g transform="translate(64 64) scale(1.08) translate(-64 -64)">
    
  
  <g filter="url(#shadow-umbral-female-6)">
    <path d="M15 129 C21 103 39 86 64 86 C90 86 106 103 113 129Z" fill="url(#suit-umbral-female-6)" stroke="#08101d" stroke-width="4" stroke-linejoin="round"/>
    <path d="M36 87 L50 129 H78 L92 87 C80 96 51 96 36 87Z" fill="#070719" stroke="#f472b6" stroke-opacity=".68" stroke-width="2" stroke-linejoin="round"/>
    <path d="M28 101 C43 112 85 112 100 101" stroke="#f472b6" stroke-opacity=".54" stroke-width="3" stroke-linecap="round"/>
    <path d="M45 96 L37 130 M83 96 L91 130" stroke="#08101d" stroke-opacity=".64" stroke-width="4" stroke-linecap="round"/>
    <path d="M24 111 L39 101 M104 111 L89 101" stroke="#b174ff" stroke-opacity=".78" stroke-width="4" stroke-linecap="round"/>
    <circle cx="39" cy="99" r="4.8" fill="#b174ff" stroke="#08101d" stroke-width="2"/>
    <circle cx="90" cy="99" r="4.8" fill="#b174ff" stroke="#08101d" stroke-width="2"/>
    <path d="M52 106 H76" stroke="#b174ff" stroke-width="3.4" stroke-linecap="round"/>
    <rect x="53" y="112" width="22" height="8" rx="2" fill="#08101d" opacity=".72"/>
    <text x="64" y="118" text-anchor="middle" fill="#f472b6" font-size="6" font-family="Arial, sans-serif" font-weight="900">VOID</text>
  </g>
  <g filter="url(#shadow-umbral-female-6)">
    <path d="M36 55 C21 70 24 94 36 110 M93 55 C109 72 104 96 93 111" stroke="#b174ff" stroke-width="5.5" stroke-linecap="round" opacity=".76"/>
    <path d="M35 59 C36 33 49 17 64 15 C84 17 96 35 95 60 C94 84 80 101 64 105 C48 101 36 84 35 59Z" fill="#69f0cf" stroke="#08101d" stroke-width="4" stroke-linejoin="round"/>
    <path d="M35 59 C36 33 49 17 64 15 C84 17 96 35 95 60 C94 84 80 101 64 105 C48 101 36 84 35 59Z" fill="url(#shade-umbral-female-6)" opacity=".22"/>
    <path d="M39 45 C40 25 53 11 64 18 C76 11 90 25 91 45 C80 37 51 37 39 45Z" fill="#241047" stroke="#42f0ff" stroke-width="3"/>
    <path d="M44 61 C51 55 59 55 64 62 M69 62 C75 55 84 55 90 61" stroke="#08101d" stroke-width="3.2" stroke-linecap="round"/>
    <ellipse cx="55" cy="67" rx="5.1" ry="6.9" fill="#42f0ff" filter="url(#glow-umbral-female-6)"/>
    <ellipse cx="79" cy="67" rx="5.1" ry="6.9" fill="#42f0ff" filter="url(#glow-umbral-female-6)"/>
    <path d="M54 67 H59 M78 67 H83" stroke="#ffffff" stroke-opacity=".9" stroke-width="1.6" stroke-linecap="round"/>
    <circle cx="64" cy="57" r="5" fill="#42f0ff" opacity=".75" filter="url(#glow-umbral-female-6)"/>
    <path d="M56 87 C62 92 71 92 78 87" stroke="#08101d" stroke-width="2.7" stroke-linecap="round"/>
    <path d="M42 77 C55 84 77 84 90 77" stroke="#b174ff" stroke-opacity=".38" stroke-width="2.2"/>
    <path d="M43 70 C39 77 39 84 44 91 M89 70 C94 78 93 85 88 92" stroke="#f472b6" stroke-opacity=".44" stroke-width="2.4" stroke-linecap="round"/>
    <circle cx="48" cy="52" r="2" fill="#f472b6" opacity=".42"/><circle cx="85" cy="52" r="2" fill="#f472b6" opacity=".42"/>
    <path d="M38 43 C24 48 19 62 23 80" stroke="#42f0ff" stroke-width="3" stroke-linecap="round"/><circle cx="24" cy="82" r="4" fill="#b174ff" stroke="#08101d" stroke-width="2"/><path d="M27 83 H40" stroke="#f472b6" stroke-width="2" stroke-linecap="round"/>
  </g>
  </g>
</svg>