<svg xmlns="http://www.w3.org/2000/svg" width="128" height="128" viewBox="0 0 128 128" fill="none" >
<defs></defs>
<rect width="128" height="128" rx="22" fill="#020812"/><circle cx="64" cy="64" r="58" fill="#ffcf6f" opacity=".08"/><circle cx="64" cy="64" r="53" stroke="#ffcf6f" stroke-opacity=".28"/><path d="M26 71 C28 34 48 17 66 17 C88 17 103 39 100 74 L90 107 L66 118 L42 106 Z" fill="#fff4bd" stroke="#ffcf6f" stroke-width="3"/><path d="M66 8 L74 31 H58 Z" fill="#ffcf6f"/><path d="M43 62 C51 51 79 51 88 62 L84 73 C72 78 58 78 47 73 Z" fill="#b32d27" opacity=".85"/><path d="M34 86 C54 96 77 96 97 86" stroke="#ffcf6f" stroke-width="4"/><path d="M27 126 C36 101 93 101 102 126" fill="#b32d27" stroke="#ffcf6f" stroke-width="2" opacity=".96"/><text x="64" y="124" fill="#fff4bd" font-family="Arial" font-size="11" font-weight="800" text-anchor="middle">HELIOS-3</text>
</svg>