<svg xmlns="http://www.w3.org/2000/svg" width="128" height="128" viewBox="0 0 128 128" fill="none" >
<defs></defs>
<rect width="128" height="128" rx="22" fill="#020812"/><circle cx="64" cy="64" r="58" fill="#ff8f2e" opacity=".08"/><circle cx="64" cy="64" r="53" stroke="#ff8f2e" stroke-opacity=".28"/><path d="M27 70 C27 39 46 22 66 22 C88 22 102 43 99 74 L91 106 L67 116 L42 105 Z" fill="#5b6670" stroke="#c2c8cc" stroke-width="3"/><path d="M35 42 H98" stroke="#ff8f2e" stroke-width="8"/><path d="M43 62 C51 51 79 51 88 62 L84 73 C72 78 58 78 47 73 Z" fill="#101820" stroke="#ff8f2e" stroke-width="2"/><circle cx="91" cy="52" r="8" fill="#ff8f2e"/><path d="M27 126 C36 101 93 101 102 126" fill="#5b6670" stroke="#ff8f2e" stroke-width="2" opacity=".96"/><text x="64" y="124" fill="#c2c8cc" font-family="Arial" font-size="11" font-weight="800" text-anchor="middle">VARN-2</text>
</svg>