<svg xmlns="http://www.w3.org/2000/svg" width="128" height="128" viewBox="0 0 128 128" fill="none" >
<defs><filter id="glow"><feGaussianBlur stdDeviation="2.5" result="b"/><feMerge><feMergeNode in="b"/><feMergeNode in="SourceGraphic"/></feMerge></filter></defs>
<g filter="url(#glow)"><rect width="128" height="128" fill="none"/><ellipse cx="64" cy="64" rx="52" ry="31" fill="#b174ff" opacity=".08"/><polygon points="8,64 32,26 102,30 124,64 102,98 32,102" fill="#111327" stroke="#b174ff" stroke-width="3" stroke-linejoin="round"/><polygon points="32,64 61,51 96,64 61,77" fill="#b174ff" opacity=".84"/><path d="M30 64 H111" stroke="#42f0ff" stroke-opacity=".7" stroke-width="2"/><circle cx="64" cy="64" r="5" fill="#42f0ff"/><path d="M47 43 L32 26 M47 85 L32 102 M84 43 L100 27 M84 85 L100 101" stroke="#b174ff" stroke-width="4"/><path d="M18 60 L2 54 M18 68 L2 74" stroke="#42f0ff" stroke-width="3" stroke-linecap="round" opacity=".8"/><text x="64" y="118" fill="#42f0ff" font-family="Arial" font-size="10" font-weight="800" text-anchor="middle">NYX BATTLESHIP</text></g>
</svg>