<svg xmlns="http://www.w3.org/2000/svg" viewBox="0 0 128 128" role="img" aria-label="Tier 1 pirate ring base">
  <defs>
    <radialGradient id="core" cx="50%" cy="50%" r="45%">
      <stop offset="0" stop-color="#9fb2b7" stop-opacity=".7"/>
      <stop offset=".45" stop-color="#26343b" stop-opacity=".85"/>
      <stop offset="1" stop-color="#081018" stop-opacity="0"/>
    </radialGradient>
    <filter id="drawn">
      <feTurbulence type="fractalNoise" baseFrequency="0.78" numOctaves="2" seed="41" result="noise"/>
      <feDisplacementMap in="SourceGraphic" in2="noise" scale=".85"/>
    </filter>
  </defs>
  <rect width="128" height="128" fill="none"/>
  <g filter="url(#drawn)" fill="none" stroke-linecap="round" stroke-linejoin="round">
    <circle cx="64" cy="64" r="23" fill="url(#core)" stroke="#12191f" stroke-width="4"/>
    <path d="M41 37 C53 24 77 23 91 37" stroke="#5d6c72" stroke-width="10"/>
    <path d="M33 78 C39 94 58 104 75 101" stroke="#5d6c72" stroke-width="10"/>
    <path d="M95 48 C102 61 100 74 91 86" stroke="#4b585e" stroke-width="8"/>
    <path d="M45 36 C56 29 75 28 87 38 M36 78 C44 90 58 96 74 94" stroke="#a5b2ad" stroke-width="2" opacity=".72"/>
    <path d="M29 61 L17 57 M98 88 L109 99 M50 29 L47 17" stroke="#2b363c" stroke-width="5"/>
    <path d="M52 61 L76 61 M56 70 L72 70" stroke="#ff7a4a" stroke-width="3"/>
    <path d="M55 47 L65 41 L74 47 L75 80 L64 87 L53 80 Z" fill="#384349" stroke="#10171c" stroke-width="4"/>
    <path d="M58 52 L69 52 M57 78 L70 78" stroke="#93a0a2" stroke-width="2"/>
  </g>
</svg>
