<svg xmlns="http://www.w3.org/2000/svg" width="128" height="128" viewBox="0 0 128 128" fill="none" >
<defs></defs>
<rect width="128" height="128" fill="none"/><ellipse cx="64" cy="64" rx="53" ry="33" fill="#5dffbf" opacity=".11"/><path d="M14 64 C31 24 91 24 114 64 C91 104 31 104 14 64 Z" fill="#10251f" stroke="#5dffbf" stroke-width="4"/><path d="M35 64 C48 42 80 42 93 64 C80 85 48 85 35 64 Z" fill="#b184ff"/><circle cx="64" cy="64" r="9" fill="#e9fff7"/><path d="M42 42 C31 28 22 18 8 14 M86 42 C99 27 110 18 123 14 M42 86 C31 100 20 109 7 115 M86 86 C99 100 110 109 122 115" stroke="#5dffbf" stroke-width="4" stroke-linecap="round"/><text x="64" y="118" fill="#dffbf4" font-family="Arial" font-size="10" font-weight="800" text-anchor="middle">ALIEN BIO-SHIP</text>
</svg>