<svg xmlns="http://www.w3.org/2000/svg" width="128" height="128" viewBox="0 0 128 128" fill="none" >
<defs></defs>
<rect width="128" height="128" rx="22" fill="#020812"/><circle cx="64" cy="64" r="58" fill="#8edbff" opacity=".08"/><circle cx="64" cy="64" r="53" stroke="#8edbff" stroke-opacity=".28"/><path d="M30 72 C31 39 49 23 66 23 C87 23 100 43 98 74 L91 106 L66 116 L42 105 Z" fill="#6c7984" stroke="#d7f6ff" stroke-width="3"/><path d="M43 62 C51 51 79 51 88 62 L84 73 C72 78 58 78 47 73 Z" fill="#8edbff" opacity=".8"/><path d="M45 31 C62 24 82 29 96 43" stroke="#d7f6ff" stroke-width="4" opacity=".7"/><path d="M27 126 C36 101 93 101 102 126" fill="#6c7984" stroke="#8edbff" stroke-width="2" opacity=".96"/><text x="64" y="124" fill="#d7f6ff" font-family="Arial" font-size="11" font-weight="800" text-anchor="middle">NEUTRAL-3</text>
</svg>