<svg xmlns="http://www.w3.org/2000/svg" viewBox="0 0 512 320">
  <defs>
    <radialGradient id="bg" cx="48%" cy="45%" r="60%"><stop offset="0%" stop-color="#72ff9c" stop-opacity=".26"/><stop offset="62%" stop-color="#06131a"/><stop offset="100%" stop-color="#010307"/></radialGradient>
    <filter id="blur"><feGaussianBlur stdDeviation="5"/></filter>
  </defs>
  <rect width="512" height="320" rx="0" fill="url(#bg)"/>
  <g filter="url(#blur)" opacity=".68">
    <ellipse cx="256" cy="162" rx="159" ry="54" fill="#72ff9c"/>
    <ellipse cx="256" cy="164" rx="169" ry="24" fill="#d6ffd3"/>
  </g>
  <path d="M58 168 C142 78 215 90 256 28 C297 90 370 78 454 168 C362 153 309 220 256 292 C203 220 150 153 58 168Z" fill="#06131a" stroke="#72ff9c" stroke-width="7" stroke-linejoin="round"/>
  <path d="M88 168 C170 130 213 145 256 72 C299 145 342 130 424 168 C340 178 304 211 256 264 C208 211 172 178 88 168Z" fill="#d6ffd3" opacity=".22"/>
  <path d="M158 167 C210 128 231 124 256 76 C281 124 302 128 354 167 C315 181 285 211 256 252 C227 211 197 181 158 167Z" fill="#72ff9c" opacity=".34"/>
  <circle cx="256" cy="160" r="32" fill="#010307" stroke="#d6ffd3" stroke-width="6"/>
  <circle cx="256" cy="160" r="12" fill="#d6ffd3"/>
  <path d="M256 48 L245 118 L256 104 L267 118 Z M256 272 L245 202 L256 216 L267 202 Z" fill="#d6ffd3" opacity=".82"/>
  <path d="M118 156 C169 184 213 184 244 164 M394 156 C343 184 299 184 268 164" fill="none" stroke="#72ff9c" stroke-width="5" stroke-linecap="round" opacity=".78"/>
</svg>