<svg xmlns="http://www.w3.org/2000/svg" width="128" height="128" viewBox="0 0 128 128" fill="none" >
<defs></defs>
<rect width="128" height="128" rx="22" fill="#020812"/><circle cx="64" cy="64" r="58" fill="#b174ff" opacity=".08"/><circle cx="64" cy="64" r="53" stroke="#b174ff" stroke-opacity=".28"/><path d="M28 72 C28 36 48 16 67 16 C92 16 104 40 101 74 L90 102 L67 118 L43 104 Z" fill="#111327" stroke="#b174ff" stroke-width="3"/><path d="M43 62 C51 51 79 51 88 62 L84 73 C72 78 58 78 47 73 Z" fill="#42f0ff" opacity=".85"/><path d="M38 31 L19 15 M94 33 L113 18" stroke="#b174ff" stroke-width="4"/><path d="M27 126 C36 101 93 101 102 126" fill="#111327" stroke="#b174ff" stroke-width="2" opacity=".96"/><text x="64" y="124" fill="#42f0ff" font-family="Arial" font-size="11" font-weight="800" text-anchor="middle">NYX-3</text>
</svg>