<svg xmlns="http://www.w3.org/2000/svg" width="128" height="128" viewBox="0 0 128 128" fill="none">
  <title>Iron Meridian Forge Relay</title>
  <defs>
    <radialGradient id="bg-iron-female-2" cx="48%" cy="30%" r="70%">
      <stop offset="0%" stop-color="#c8d2da" stop-opacity=".30"/>
      <stop offset="55%" stop-color="#070b10" stop-opacity=".98"/>
      <stop offset="100%" stop-color="#01040a"/>
    </radialGradient>
    <linearGradient id="suit-iron-female-2" x1="28" y1="90" x2="101" y2="127">
      <stop offset="0%" stop-color="#c8d2da"/>
      <stop offset="48%" stop-color="#ff8f2e"/>
      <stop offset="100%" stop-color="#070b10"/>
    </linearGradient>
    <linearGradient id="shade-iron-female-2" x1="38" y1="31" x2="86" y2="94">
      <stop offset="0%" stop-color="#ffffff" stop-opacity=".28"/>
      <stop offset="100%" stop-color="#000000" stop-opacity=".28"/>
    </linearGradient>
    <filter id="shadow-iron-female-2" x="-30%" y="-30%" width="160%" height="160%">
      <feDropShadow dx="0" dy="3" stdDeviation="2" flood-color="#000000" flood-opacity=".55"/>
    </filter>
    <filter id="glow-iron-female-2" x="-60%" y="-60%" width="220%" height="220%">
      <feGaussianBlur stdDeviation="2.2" result="blur"/>
      <feMerge><feMergeNode in="blur"/><feMergeNode in="SourceGraphic"/></feMerge>
    </filter>
  </defs>
  <rect width="128" height="128" rx="10" fill="url(#bg-iron-female-2)"/>
  <path d="M7 24 C25 15 46 11 64 13 C92 15 111 27 122 43" stroke="#c8d2da" stroke-opacity=".24" stroke-width="2"/>
  <path d="M8 98 C33 110 73 114 121 92" stroke="#ff8f2e" stroke-opacity=".22" stroke-width="3"/>
  <path d="M101 10 L118 22 M110 12 L121 20 M10 109 L24 119 M16 106 L31 117" stroke="#ffffff" stroke-opacity=".11" stroke-width="2" stroke-linecap="round"/>
  <g opacity=".34">
    <path d="M16 30 L30 24 M102 25 L117 34 M14 109 L29 113 M100 113 L117 104" stroke="#63e7ff" stroke-width="2"/>
    <circle cx="24" cy="67" r="2" fill="#ff8f2e"/>
    <circle cx="105" cy="69" r="2.5" fill="#c8d2da"/>
    <circle cx="99" cy="18" r="1.6" fill="#63e7ff"/>
  </g>
  <rect x="5" y="5" width="118" height="118" rx="8" stroke="#c8d2da" stroke-opacity=".36" stroke-width="2"/>
  <g transform="translate(64 64) scale(1.08) translate(-64 -64)">
    
  
  <g filter="url(#shadow-iron-female-2)">
    <path d="M15 129 C21 103 39 86 64 86 C90 86 106 103 113 129Z" fill="url(#suit-iron-female-2)" stroke="#05080c" stroke-width="4" stroke-linejoin="round"/>
    <path d="M36 87 L50 129 H78 L92 87 C80 96 51 96 36 87Z" fill="#070b10" stroke="#63e7ff" stroke-opacity=".68" stroke-width="2" stroke-linejoin="round"/>
    <path d="M28 101 C43 112 85 112 100 101" stroke="#63e7ff" stroke-opacity=".54" stroke-width="3" stroke-linecap="round"/>
    <path d="M45 96 L37 130 M83 96 L91 130" stroke="#05080c" stroke-opacity=".64" stroke-width="4" stroke-linecap="round"/>
    <path d="M24 111 L39 101 M104 111 L89 101" stroke="#c8d2da" stroke-opacity=".78" stroke-width="4" stroke-linecap="round"/>
    <circle cx="39" cy="99" r="4.8" fill="#c8d2da" stroke="#05080c" stroke-width="2"/>
    <circle cx="90" cy="99" r="4.8" fill="#c8d2da" stroke="#05080c" stroke-width="2"/>
    <path d="M52 106 H76" stroke="#c8d2da" stroke-width="3.4" stroke-linecap="round"/>
    <rect x="53" y="112" width="22" height="8" rx="2" fill="#05080c" opacity=".72"/>
    <text x="64" y="118" text-anchor="middle" fill="#63e7ff" font-size="6" font-family="Arial, sans-serif" font-weight="900">SYNTH</text>
  </g>
  <g filter="url(#shadow-iron-female-2)">
    <path d="M32 67 L15 64 M96 67 L113 64" stroke="#ff8f2e" stroke-width="3" stroke-linecap="round"/><circle cx="114" cy="64" r="3" fill="#8fd6ff" filter="url(#glow-iron-female-2)"/>
    <path d="M36 59 L47 27 L66 18 L88 33 L93 60 L82 93 L64 102 L44 91Z" fill="#c7d2da" stroke="#05080c" stroke-width="4" stroke-linejoin="round"/>
    <path d="M36 59 L47 27 L66 18 L88 33 L93 60 L82 93 L64 102 L44 91Z" fill="url(#shade-iron-female-2)" opacity=".26"/>
    <path d="M47 38 H82 M39 53 H48 M81 53 H91" stroke="#ffffff" stroke-opacity=".38" stroke-width="2.4" stroke-linecap="round"/>
    <path d="M48 41 H80 M43 76 H86" stroke="#05080c" stroke-opacity=".46" stroke-width="2.2" stroke-linecap="round"/><path d="M59 82 H70" stroke="#8fd6ff" stroke-width="3" stroke-linecap="round"/>
    <path d="M44 54 H61 L58 70 H47Z" fill="#030609" stroke="#8fd6ff" stroke-width="2.5"/><path d="M68 54 H86 L81 70 H70Z" fill="#030609" stroke="#8fd6ff" stroke-width="2.5"/><path d="M50 62 H56 M73 62 H80" stroke="#8fd6ff" stroke-width="4" stroke-linecap="round" filter="url(#glow-iron-female-2)"/>
    <path d="M64 70 L57 80 H71Z" fill="#070b10" stroke="#c8d2da" stroke-opacity=".55" stroke-width="2"/>
    <path d="M49 80 L64 90 L80 80 L77 92 L64 101 L51 92Z" fill="#182129" stroke="#8fd6ff" stroke-opacity=".45" stroke-width="2"/>
    <circle cx="64" cy="45" r="4" fill="#8fd6ff" opacity=".95" filter="url(#glow-iron-female-2)"/>
    <path d="M42 89 C55 98 74 98 87 89" stroke="#ff8f2e" stroke-width="3" stroke-linecap="round"/>
    <path d="M54 23 L64 7 L75 23 L70 39 H58Z" fill="#8fd6ff" stroke="#05080c" stroke-width="2" filter="url(#glow-iron-female-2)"/>
  </g>
  </g>
</svg>