<svg xmlns="http://www.w3.org/2000/svg" width="128" height="128" viewBox="0 0 128 128" fill="none">
  <title>Solar Accord Aster Command</title>
  <defs>
    <radialGradient id="bg-solar-female-1" cx="48%" cy="30%" r="70%">
      <stop offset="0%" stop-color="#f5b342" stop-opacity=".30"/>
      <stop offset="55%" stop-color="#060b14" stop-opacity=".98"/>
      <stop offset="100%" stop-color="#01040a"/>
    </radialGradient>
    <linearGradient id="suit-solar-female-1" x1="28" y1="90" x2="101" y2="127">
      <stop offset="0%" stop-color="#f5b342"/>
      <stop offset="48%" stop-color="#285adf"/>
      <stop offset="100%" stop-color="#060b14"/>
    </linearGradient>
    <linearGradient id="shade-solar-female-1" x1="38" y1="31" x2="86" y2="94">
      <stop offset="0%" stop-color="#ffffff" stop-opacity=".28"/>
      <stop offset="100%" stop-color="#000000" stop-opacity=".28"/>
    </linearGradient>
    <filter id="shadow-solar-female-1" x="-30%" y="-30%" width="160%" height="160%">
      <feDropShadow dx="0" dy="3" stdDeviation="2" flood-color="#000000" flood-opacity=".55"/>
    </filter>
    <filter id="glow-solar-female-1" x="-60%" y="-60%" width="220%" height="220%">
      <feGaussianBlur stdDeviation="2.2" result="blur"/>
      <feMerge><feMergeNode in="blur"/><feMergeNode in="SourceGraphic"/></feMerge>
    </filter>
  </defs>
  <rect width="128" height="128" rx="10" fill="url(#bg-solar-female-1)"/>
  <path d="M7 24 C25 15 46 11 64 13 C92 15 111 27 122 43" stroke="#f5b342" stroke-opacity=".24" stroke-width="2"/>
  <path d="M8 98 C33 110 73 114 121 92" stroke="#285adf" stroke-opacity=".22" stroke-width="3"/>
  <path d="M101 10 L118 22 M110 12 L121 20 M10 109 L24 119 M16 106 L31 117" stroke="#ffffff" stroke-opacity=".11" stroke-width="2" stroke-linecap="round"/>
  <g opacity=".34">
    <path d="M16 30 L30 24 M102 25 L117 34 M14 109 L29 113 M100 113 L117 104" stroke="#f7e6b1" stroke-width="2"/>
    <circle cx="24" cy="67" r="2" fill="#285adf"/>
    <circle cx="105" cy="69" r="2.5" fill="#f5b342"/>
    <circle cx="99" cy="18" r="1.6" fill="#f7e6b1"/>
  </g>
  <rect x="5" y="5" width="118" height="118" rx="8" stroke="#f5b342" stroke-opacity=".36" stroke-width="2"/>
  <g transform="translate(64 64) scale(1.08) translate(-64 -64)">
    
  
  <g filter="url(#shadow-solar-female-1)">
    <path d="M15 129 C21 103 39 86 64 86 C90 86 106 103 113 129Z" fill="url(#suit-solar-female-1)" stroke="#11131d" stroke-width="4" stroke-linejoin="round"/>
    <path d="M36 87 L50 129 H78 L92 87 C80 96 51 96 36 87Z" fill="#060b14" stroke="#f7e6b1" stroke-opacity=".68" stroke-width="2" stroke-linejoin="round"/>
    <path d="M28 101 C43 112 85 112 100 101" stroke="#f7e6b1" stroke-opacity=".54" stroke-width="3" stroke-linecap="round"/>
    <path d="M45 96 L37 130 M83 96 L91 130" stroke="#11131d" stroke-opacity=".64" stroke-width="4" stroke-linecap="round"/>
    <path d="M24 111 L39 101 M104 111 L89 101" stroke="#f5b342" stroke-opacity=".78" stroke-width="4" stroke-linecap="round"/>
    <circle cx="39" cy="99" r="4.8" fill="#285adf" stroke="#11131d" stroke-width="2"/>
    <circle cx="90" cy="99" r="4.8" fill="#285adf" stroke="#11131d" stroke-width="2"/>
    <path d="M52 106 H76" stroke="#285adf" stroke-width="3.4" stroke-linecap="round"/>
    <rect x="53" y="112" width="22" height="8" rx="2" fill="#11131d" opacity=".72"/>
    <text x="64" y="118" text-anchor="middle" fill="#f7e6b1" font-size="6" font-family="Arial, sans-serif" font-weight="900">HUMAN</text>
  </g>
  <g>
    
  <path d="M35 61 C28 62 26 72 34 77 M94 61 C102 63 103 73 95 78" fill="#7b4a34" stroke="#11131d" stroke-width="3" stroke-linecap="round"/>
  <path d="M36 59 C36 35 48 21 65 21 C83 21 94 36 93 60 C92 84 80 99 65 101 C49 99 37 84 36 59Z" fill="#7b4a34" stroke="#11131d" stroke-width="4" stroke-linejoin="round" filter="url(#shadow-solar-female-1)"/>
  <path d="M36 59 C36 35 48 21 65 21 C83 21 94 36 93 60 C92 84 80 99 65 101 C49 99 37 84 36 59Z" fill="url(#shade-solar-female-1)" opacity=".26"/>
  <path d="M35 66 C30 42 42 20 64 19 C88 18 99 39 93 66 C82 51 52 48 35 66Z" fill="#d7b56c" stroke="#11131d" stroke-width="4" stroke-linejoin="round"/>
  <path d="M47 59 L60 56 M72 56 L86 59" stroke="#11131d" stroke-width="3.4" stroke-linecap="round"/>
  <path d="M47 67 C52 63 59 63 63 67 M70 67 C75 63 82 63 87 67" stroke="#0b1624" stroke-width="2.6" stroke-linecap="round"/>
  <ellipse cx="55" cy="68.5" rx="3.5" ry="2.9" fill="#f7fbff"/><ellipse cx="78" cy="68.5" rx="3.5" ry="2.9" fill="#f7fbff"/>
  <circle cx="55.7" cy="68.5" r="1.35" fill="#11131d"/><circle cx="78.7" cy="68.5" r="1.35" fill="#11131d"/>
  <path d="M65 70 L60 81 H68" stroke="#75432f" stroke-opacity=".66" stroke-width="2.4" stroke-linecap="round" stroke-linejoin="round"/>
  <path d="M56 87 C62 92 71 92 78 87" stroke="#3b1620" stroke-width="2.7" stroke-linecap="round"/>
  <path d="M46 52 C54 49 75 49 86 53" stroke="#ffffff" stroke-opacity=".17" stroke-width="2" stroke-linecap="round"/>
  <circle cx="49" cy="75" r="4.5" fill="#f47272" opacity=".22"/><circle cx="82" cy="75" r="4.5" fill="#f47272" opacity=".22"/>
  
    <path d="M37 49 C47 34 80 32 94 50 L90 59 C75 53 54 53 40 59Z" fill="#23395d" stroke="#11131d" stroke-width="3.2"/><path d="M44 50 H88" stroke="#f5b342" stroke-width="3.2" stroke-linecap="round"/><circle cx="64" cy="47" r="3" fill="#f7e6b1" stroke="#11131d" stroke-width="1.5"/>
    <path d="M90 42 C105 47 109 61 105 79" stroke="#285adf" stroke-width="3" stroke-linecap="round"/><circle cx="104" cy="81" r="4" fill="#f5b342" stroke="#11131d" stroke-width="2"/><path d="M101 82 H88" stroke="#f7e6b1" stroke-width="2" stroke-linecap="round"/>
    <path d="M29 79 C43 91 85 91 99 79" stroke="#f5b342" stroke-width="4" stroke-linecap="round" opacity=".86"/>
    <path d="M25 83 L36 87 M92 87 L103 83" stroke="#285adf" stroke-width="3" stroke-linecap="round"/>
  </g>
  </g>
</svg>