<svg xmlns="http://www.w3.org/2000/svg" width="128" height="128" viewBox="0 0 128 128" fill="none">
  <title>Solar Accord Bright Lance</title>
  <defs>
    <radialGradient id="bg-solar-male-2" cx="48%" cy="30%" r="70%">
      <stop offset="0%" stop-color="#f5b342" stop-opacity=".30"/>
      <stop offset="55%" stop-color="#060b14" stop-opacity=".98"/>
      <stop offset="100%" stop-color="#01040a"/>
    </radialGradient>
    <linearGradient id="suit-solar-male-2" x1="28" y1="90" x2="101" y2="127">
      <stop offset="0%" stop-color="#f5b342"/>
      <stop offset="48%" stop-color="#285adf"/>
      <stop offset="100%" stop-color="#060b14"/>
    </linearGradient>
    <linearGradient id="shade-solar-male-2" x1="38" y1="31" x2="86" y2="94">
      <stop offset="0%" stop-color="#ffffff" stop-opacity=".28"/>
      <stop offset="100%" stop-color="#000000" stop-opacity=".28"/>
    </linearGradient>
    <filter id="shadow-solar-male-2" x="-30%" y="-30%" width="160%" height="160%">
      <feDropShadow dx="0" dy="3" stdDeviation="2" flood-color="#000000" flood-opacity=".55"/>
    </filter>
    <filter id="glow-solar-male-2" x="-60%" y="-60%" width="220%" height="220%">
      <feGaussianBlur stdDeviation="2.2" result="blur"/>
      <feMerge><feMergeNode in="blur"/><feMergeNode in="SourceGraphic"/></feMerge>
    </filter>
  </defs>
  <rect width="128" height="128" rx="10" fill="url(#bg-solar-male-2)"/>
  <path d="M7 24 C25 15 46 11 64 13 C92 15 111 27 122 43" stroke="#f5b342" stroke-opacity=".24" stroke-width="2"/>
  <path d="M8 98 C33 110 73 114 121 92" stroke="#285adf" stroke-opacity=".22" stroke-width="3"/>
  <path d="M101 10 L118 22 M110 12 L121 20 M10 109 L24 119 M16 106 L31 117" stroke="#ffffff" stroke-opacity=".11" stroke-width="2" stroke-linecap="round"/>
  <g opacity=".34">
    <path d="M16 30 L30 24 M102 25 L117 34 M14 109 L29 113 M100 113 L117 104" stroke="#f7e6b1" stroke-width="2"/>
    <circle cx="24" cy="67" r="2" fill="#285adf"/>
    <circle cx="105" cy="69" r="2.5" fill="#f5b342"/>
    <circle cx="99" cy="18" r="1.6" fill="#f7e6b1"/>
  </g>
  <rect x="5" y="5" width="118" height="118" rx="8" stroke="#f5b342" stroke-opacity=".36" stroke-width="2"/>
  <g transform="translate(64 64) scale(1.08) translate(-64 -64)">
    
  
  <g filter="url(#shadow-solar-male-2)">
    <path d="M11 130 C17 99 37 83 64 83 C93 83 111 99 117 130Z" fill="url(#suit-solar-male-2)" stroke="#11131d" stroke-width="4" stroke-linejoin="round"/>
    <path d="M30 84 L47 130 H82 L99 84 C83 96 47 96 30 84Z" fill="#060b14" stroke="#f7e6b1" stroke-opacity=".68" stroke-width="2" stroke-linejoin="round"/>
    <path d="M28 101 C43 112 85 112 100 101" stroke="#f7e6b1" stroke-opacity=".54" stroke-width="3" stroke-linecap="round"/>
    <path d="M45 96 L37 130 M83 96 L91 130" stroke="#11131d" stroke-opacity=".64" stroke-width="4" stroke-linecap="round"/>
    <path d="M24 111 L39 101 M104 111 L89 101" stroke="#f5b342" stroke-opacity=".78" stroke-width="4" stroke-linecap="round"/>
    <circle cx="39" cy="99" r="4.8" fill="#f5b342" stroke="#11131d" stroke-width="2"/>
    <circle cx="90" cy="99" r="4.8" fill="#f5b342" stroke="#11131d" stroke-width="2"/>
    <path d="M52 106 H76" stroke="#f5b342" stroke-width="3.4" stroke-linecap="round"/>
    <rect x="53" y="112" width="22" height="8" rx="2" fill="#11131d" opacity=".72"/>
    <text x="64" y="118" text-anchor="middle" fill="#f7e6b1" font-size="6" font-family="Arial, sans-serif" font-weight="900">HUMAN</text>
  </g>
  <g>
    
  <path d="M35 61 C28 62 26 72 34 77 M94 61 C102 63 103 73 95 78" fill="#a76442" stroke="#11131d" stroke-width="3" stroke-linecap="round"/>
  <path d="M34 58 C35 34 48 20 65 20 C84 20 96 35 96 61 C95 85 82 101 65 103 C48 101 35 84 34 58Z" fill="#a76442" stroke="#11131d" stroke-width="4" stroke-linejoin="round" filter="url(#shadow-solar-male-2)"/>
  <path d="M34 58 C35 34 48 20 65 20 C84 20 96 35 96 61 C95 85 82 101 65 103 C48 101 35 84 34 58Z" fill="url(#shade-solar-male-2)" opacity=".26"/>
  <path d="M37 49 C47 24 75 16 94 36 C80 36 60 40 39 54Z" fill="#26344d" stroke="#11131d" stroke-width="4"/><path d="M50 84 C58 94 72 94 80 84 C76 100 69 106 64 106 C58 106 51 99 50 84Z" fill="#26344d" opacity=".55"/>
  <path d="M46 58 C52 55 58 55 63 59 M70 59 C76 55 82 55 88 58" stroke="#11131d" stroke-width="3.4" stroke-linecap="round"/>
  <path d="M47 67 C52 63 59 63 63 67 M70 67 C75 63 82 63 87 67" stroke="#0b1624" stroke-width="2.6" stroke-linecap="round"/>
  <ellipse cx="55" cy="68.5" rx="3.5" ry="2.9" fill="#f7fbff"/><ellipse cx="78" cy="68.5" rx="3.5" ry="2.9" fill="#f7fbff"/>
  <circle cx="55.7" cy="68.5" r="1.35" fill="#11131d"/><circle cx="78.7" cy="68.5" r="1.35" fill="#11131d"/>
  <path d="M65 70 L60 81 H68" stroke="#75432f" stroke-opacity=".66" stroke-width="2.4" stroke-linecap="round" stroke-linejoin="round"/>
  <path d="M56 87 C62 92 71 92 78 87" stroke="#3b1620" stroke-width="2.7" stroke-linecap="round"/>
  <path d="M46 52 C54 49 75 49 86 53" stroke="#ffffff" stroke-opacity=".17" stroke-width="2" stroke-linecap="round"/>
  
  <path d="M47 80 C55 91 76 91 84 80 C81 98 72 107 65 107 C57 107 50 98 47 80Z" fill="#26344d" opacity=".58"/><path d="M54 90 C60 95 70 95 76 90" stroke="#11131d" stroke-opacity=".42" stroke-width="2" stroke-linecap="round"/>
    
    <path d="M38 42 C24 47 19 61 23 79" stroke="#285adf" stroke-width="3" stroke-linecap="round"/><circle cx="24" cy="81" r="4" fill="#f5b342" stroke="#11131d" stroke-width="2"/><path d="M27 82 H40" stroke="#f7e6b1" stroke-width="2" stroke-linecap="round"/>
    <path d="M29 79 C43 91 85 91 99 79" stroke="#f5b342" stroke-width="4" stroke-linecap="round" opacity=".86"/>
    <path d="M25 83 L36 87 M92 87 L103 83" stroke="#285adf" stroke-width="3" stroke-linecap="round"/>
  </g>
  </g>
</svg>