<svg xmlns="http://www.w3.org/2000/svg" width="128" height="128" viewBox="0 0 128 128" fill="none">
  <title>Solar Accord Human Sol Ranger</title>
  <defs>
    <linearGradient id="bg-solar-ink-male-4" x1="0" y1="0" x2="1" y2="1"><stop offset="0" stop-color="#2c4550"/><stop offset="1" stop-color="#070911"/></linearGradient>
    <radialGradient id="wash-solar-ink-male-4" cx="48%" cy="34%" r="72%"><stop offset="0" stop-color="#7ecbe0" stop-opacity=".20"/><stop offset=".68" stop-color="#000" stop-opacity="0"/></radialGradient>
    <filter id="ink-solar-ink-male-4" x="-25%" y="-25%" width="150%" height="150%"><feDropShadow dx=".6" dy=".8" stdDeviation=".2" flood-color="#090a0e" flood-opacity=".75"/></filter>
  </defs>
  <rect width="128" height="128" rx="6" fill="#07080d"/>
  <rect x="5" y="5" width="118" height="118" rx="4" fill="url(#bg-solar-ink-male-4)"/>
  <rect x="5" y="5" width="118" height="118" rx="4" fill="url(#wash-solar-ink-male-4)"/>
  <path d="M12 24 C33 12 58 11 76 14 C92 17 104 15 117 24 M13 105 C30 113 50 118 68 116 C86 114 101 116 116 106" stroke="#f4eadc" stroke-opacity=".13" stroke-width="1.7" stroke-linecap="round"/>
  <path d="M17 33 C15 48 15 78 21 97 M111 32 C114 49 113 76 107 96" stroke="#05060a" stroke-opacity=".42" stroke-width="1.4" stroke-linecap="round"/>
  <path d="M27 126 C31 104 43 92 64 92 C85 92 98 104 102 126Z" fill="#202635" stroke="#11131a" stroke-width="3" stroke-linejoin="round" filter="url(#ink-solar-ink-male-4)"/>
  <path d="M39 101 C48 109 80 109 90 101 L84 126 H44Z" fill="#7ecbe0" opacity=".72"/>
  <path d="M49 103 L57 126 M79 103 L71 126" stroke="#e9edf0" stroke-opacity=".55" stroke-width="2.5" stroke-linecap="round"/>
  <path d="M33 113 H95" stroke="#11131a" stroke-opacity=".35" stroke-width="1.5"/>
  <path d="M42 57 C42 39 51 29 64 28 C78 28 87 39 87 58 C87 79 77 92 64 93 C51 92 42 79 42 57Z" fill="#704932" stroke="#11131a" stroke-width="3" stroke-linejoin="round" filter="url(#ink-solar-ink-male-4)"/>
  <path d="M37 59 C39 36 50 23 66 23 C83 24 93 38 91 61 C82 48 70 44 58 46Z" fill="#6f3c24" stroke="#11131a" stroke-width="3" stroke-linejoin="round" filter="url(#ink-solar-ink-male-4)"/>
  <path d="M45 49 C56 43 72 44 84 50" stroke="#f7efe8" stroke-opacity=".14" stroke-width="2" stroke-linecap="round"/>
  <path d="M48 62 C53 59.3 58 59.5 62 62" stroke="#11131a" stroke-width="2.3" stroke-linecap="round"/>
  <path d="M66 62 C70 59.3 76 59.5 81 62" stroke="#11131a" stroke-width="2.3" stroke-linecap="round"/>
  <circle cx="55" cy="63" r="1.7" fill="#21475a"/><circle cx="74" cy="63" r="1.7" fill="#21475a"/>
  <path d="M63 69 C61 74 60 77 60 80 C63 81 66 81 68 80" stroke="#5f3b2b" stroke-opacity=".62" stroke-width="1.8" stroke-linecap="round" stroke-linejoin="round"/>
  <path d="M57 85 C62 88 68 88 74 85" stroke="#4b1720" stroke-width="2" stroke-linecap="round"/>
  <path d="M28 78 C40 86 88 86 101 78" stroke="#7ecbe0" stroke-opacity=".7" stroke-width="2.7" stroke-linecap="round"/>
  <path d="M95 55 C103 63 105 76 100 88" stroke="#11131a" stroke-width="2.4" stroke-linecap="round"/><circle cx="100" cy="90" r="3.4" fill="#7ecbe0" stroke="#11131a" stroke-width="1.4"/>
</svg>